<svg xmlns="http://www.w3.org/2000/svg" xmlns:xlink="http://www.w3.org/1999/xlink" width="16" height="16" viewBox="0 0 16 16">
  <metadata><?xpacket begin="﻿" id="W5M0MpCehiHzreSzNTczkc9d"?>
<x:xmpmeta xmlns:x="adobe:ns:meta/" x:xmptk="Adobe XMP Core 5.6-c138 79.159824, 2016/09/14-01:09:01        ">
   <rdf:RDF xmlns:rdf="http://www.w3.org/1999/02/22-rdf-syntax-ns#">
      <rdf:Description rdf:about=""/>
   </rdf:RDF>
</x:xmpmeta>
<?xpacket end="w"?></metadata>
<defs>
    <style>
      .cls-1 {
        fill: #6d6e76;
        fill-rule: evenodd;
        filter: url(#filter);
      }
    </style>
    <filter id="filter" x="1233" y="121" width="16" height="16" filterUnits="userSpaceOnUse">
      <feFlood result="flood" flood-color="#a6a6a6"/>
      <feComposite result="composite" operator="in" in2="SourceGraphic"/>
      <feBlend result="blend" in2="SourceGraphic"/>
    </filter>
  </defs>
  <path id="refresh" class="cls-1" d="M1236.9,136.4s1.04-1.641,1.12-1.714c-1.51-1.516-5.28-5.706-1.3-9.825a5.847,5.847,0,0,1,8.47,0,6.453,6.453,0,0,1,0,8.9l1.63,1.306a8.6,8.6,0,0,0-.22-11.666,7.833,7.833,0,0,0-11.29,0C1229.32,129.405,1236.9,136.4,1236.9,136.4Zm6.11,0.583,0.02-5,5.98,5.012Z" transform="translate(-1233 -121)"/>
</svg>
